<?xml version="1.0" encoding="utf-8"?>
<svg xmlns="http://www.w3.org/2000/svg" xmlns:xlink="http://www.w3.org/1999/xlink" style="margin: auto; background: rgb(241, 242, 243); display: block; shape-rendering: auto;" width="200px" height="200px" viewBox="0 0 100 100" preserveAspectRatio="xMidYMid">
<g transform="translate(50 50)">
<g>
<animateTransform attributeName="transform" type="rotate" values="0;45" keyTimes="0;1" dur="0.47846889952153115s" repeatCount="indefinite"></animateTransform><path d="M15.354152532784088 -4.5 L18.354152532784088 -4.5 L18.354152532784088 4.5 L15.354152532784088 4.5 A16 16 0 0 1 14.039005890643697 7.675044859964767 L14.039005890643697 7.675044859964767 L16.16032623420334 9.79636520352441 L9.79636520352441 16.16032623420334 L7.675044859964768 14.039005890643695 A16 16 0 0 1 4.500000000000002 15.354152532784086 L4.500000000000002 15.354152532784086 L4.500000000000002 18.354152532784084 L-4.5 18.354152532784088 L-4.5 15.354152532784088 A16 16 0 0 1 -7.675044859964769 14.039005890643695 L-7.675044859964769 14.039005890643695 L-9.796365203524411 16.16032623420334 L-16.160326234203335 9.796365203524415 L-14.039005890643693 7.675044859964772 A16 16 0 0 1 -15.354152532784088 4.499999999999999 L-15.354152532784088 4.499999999999999 L-18.354152532784088 4.499999999999999 L-18.354152532784088 -4.499999999999996 L-15.354152532784088 -4.499999999999996 A16 16 0 0 1 -14.039005890643695 -7.6750448599647685 L-14.039005890643695 -7.6750448599647685 L-16.16032623420334 -9.796365203524411 L-9.79636520352441 -16.16032623420334 L-7.675044859964767 -14.039005890643697 A16 16 0 0 1 -4.500000000000007 -15.354152532784084 L-4.500000000000007 -15.354152532784084 L-4.500000000000008 -18.354152532784084 L4.500000000000001 -18.354152532784084 L4.500000000000002 -15.354152532784086 A16 16 0 0 1 7.675044859964761 -14.039005890643699 L7.675044859964761 -14.039005890643699 L9.796365203524402 -16.160326234203342 L16.16032623420334 -9.79636520352441 L14.039005890643697 -7.675044859964768 A16 16 0 0 1 15.354152532784084 -4.500000000000008 M0 -9A9 9 0 1 0 0 9 A9 9 0 1 0 0 -9" fill="#a80909"></path></g></g>
<!-- [ldio] generated by https://loading.io/ --></svg>